<?xml version="1.0" standalone="no"?><!DOCTYPE svg PUBLIC "-//W3C//DTD SVG 1.1//EN" "http://www.w3.org/Graphics/SVG/1.1/DTD/svg11.dtd"><svg height="272" node-id="1" sillyvg="true" template-height="272" template-width="490" version="1.1" viewBox="0 0 490 272" width="490" xmlns="http://www.w3.org/2000/svg" xmlns:xlink="http://www.w3.org/1999/xlink"><defs node-id="76"><mask height="141.45645" id="mask-2" maskUnits="userSpaceOnUse" node-id="25" width="169.29706" x="9.844787" y="139.99796"><path d="M 24.00 151.80 L 165.00 151.80 L 165.00 269.70 L 24.00 269.70 Z" fill="#ffffff" fill-rule="evenodd" node-id="81" stroke="none" target-height="117.90001" target-width="141" target-x="24" target-y="151.8"></path></mask><mask height="10.23999" id="mask-4" maskUnits="userSpaceOnUse" node-id="41" width="325.46512" x="59.35468" y="261.1385"><path d="M 84.40 254.30 L 361.90 254.30 L 361.90 270.50 L 84.40 270.50 Z" fill="#ffffff" fill-rule="evenodd" node-id="88" stroke="none" target-height="16.199997" target-width="277.5" target-x="84.4" target-y="254.3"></path></mask><mask height="106.24" id="mask-6" maskUnits="userSpaceOnUse" node-id="70" width="100.91942" x="171.12709" y="112.746666"><path d="M 179.50 121.60 L 263.60 121.60 L 263.60 210.10 L 179.50 210.10 Z" fill="#ffffff" fill-rule="evenodd" node-id="95" stroke="none" target-height="88.50001" target-width="84.100006" target-x="179.5" target-y="121.6"></path></mask></defs><g node-id="97"><g node-id="98"><path d="M 57.80 265.90 L 44.10 238.20 L 34.00 214.90 L 28.60 201.50 L 23.60 187.60 L 18.80 173.00 L 15.90 163.10 L 11.10 143.30 L 9.30 133.30 L 8.00 123.60 L 7.20 114.20 L 7.00 107.00 L 7.70 93.80 L 8.60 87.60 L 10.00 81.40 L 11.80 75.70 L 14.10 70.30 L 16.90 65.30 L 19.50 61.60 L 22.40 58.10 L 25.80 54.90 L 29.50 52.00 L 33.70 49.30 L 39.20 46.40 L 44.60 44.10 L 49.80 42.30 L 54.90 40.90 L 61.90 39.60 L 68.80 38.90 L 75.70 38.70 L 89.40 39.60 L 106.40 42.40 L 127.00 46.20 L 144.40 48.40 L 151.40 48.70 L 158.50 48.60 L 165.60 48.00 L 172.80 46.70 L 180.20 44.70 L 185.60 42.90 L 191.10 40.50 L 196.80 37.50 L 211.00 28.90 L 218.80 24.60 L 226.40 20.90 L 233.70 17.70 L 240.80 15.20 L 248.20 12.90 L 255.40 11.20 L 262.40 10.10 L 269.10 9.30 L 275.60 9.10 L 282.30 9.30 L 288.80 9.90 L 295.20 10.90 L 301.40 12.40 L 307.40 14.20 L 314.90 17.00 L 322.10 20.40 L 329.20 24.40 L 336.20 28.90 L 342.90 33.90 L 349.40 39.30 L 355.70 45.20 L 362.00 51.70 L 367.90 58.40 L 379.40 73.00 L 384.90 81.00 L 402.50 107.90 L 410.30 120.40 L 423.70 143.30 L 429.60 154.10 L 440.40 175.60 L 450.30 197.50 L 452.80 203.90 L 454.70 209.70 L 455.90 215.00 L 456.70 219.70 L 457.00 224.80 L 456.50 233.40 L 455.70 237.10 L 454.10 242.00 L 452.20 246.30 L 449.80 250.00 L 447.00 253.50 L 441.20 259.20 L 436.40 262.50 L 428.00 266.90 L 422.10 269.00 L 57.80 265.90 Z" fill="#e7f3fe" fill-opacity="0.4" fill-rule="evenodd" group-id="1,2" id="Fill-1" node-id="11" stroke="none" target-height="259.9" target-width="450" target-x="7" target-y="9.1"></path><g node-id="99"><path d="M 430.30 227.70 L 427.90 221.20 L 421.90 200.50 L 419.60 194.00 L 418.00 191.00 L 416.10 188.30 L 414.60 186.80 L 410.90 184.80 L 408.80 184.40 L 404.70 184.70 L 401.70 185.80 L 399.00 187.50 L 396.50 189.70 L 394.40 192.20 L 392.60 194.90 L 385.50 209.60 L 383.30 212.90 L 380.90 215.50 L 378.40 217.60 L 374.10 219.60 L 369.70 219.90 L 367.50 219.50 L 365.30 218.60 L 363.10 217.20 L 360.70 215.10 L 356.90 210.60 L 353.50 205.90 L 350.40 200.90 L 346.30 193.10 L 324.30 145.10 L 321.20 139.20 L 317.90 133.80 L 313.60 127.90 L 309.00 122.40 L 305.70 119.00 L 298.60 113.00 L 294.70 110.40 L 290.70 108.30 L 286.40 106.50 L 282.10 105.20 L 277.50 104.40 L 272.60 104.10 L 268.50 105.10 L 264.50 106.70 L 260.70 108.90 L 257.00 111.60 L 253.60 114.80 L 250.20 118.50 L 244.30 126.70 L 241.60 131.30 L 238.20 138.50 L 235.10 146.20 L 232.50 154.00 L 228.10 170.40 L 221.40 201.60 L 217.20 224.60 L 209.60 271.00 L 458.10 268.00 L 456.50 266.70 L 441.40 248.90 L 438.10 243.90 L 435.10 238.60 L 430.30 227.70" fill="#e4edf9" fill-rule="evenodd" group-id="1,2,3" id="Fill-1" node-id="13" stroke="none" target-height="166.9" target-width="248.5" target-x="209.6" target-y="104.1"></path><path d="M 382.20 242.40 L 381.80 245.40 L 380.80 249.00 L 377.60 256.10 L 375.40 259.50 L 372.90 262.60 L 370.20 265.20 L 367.50 267.20 L 365.50 268.20 L 361.70 268.80 L 359.50 268.40 L 357.40 267.30 L 355.40 265.60 L 352.20 261.10 L 349.30 253.70 L 348.20 249.10 L 347.60 244.50 L 347.50 240.60 L 348.50 232.80 L 350.90 221.00 L 354.30 207.50 L 356.30 200.90 L 360.00 191.10 L 363.00 185.70 L 365.60 183.00 L 367.80 182.20 L 369.90 183.20 L 372.20 186.20 L 374.70 191.90 L 377.40 202.00 L 378.80 208.80 L 380.80 222.50 L 382.00 234.60 L 382.20 242.40" fill="#83affc" fill-rule="evenodd" group-id="1,2,3" id="Fill-3" node-id="14" stroke="none" target-height="86.59999" target-width="34.700012" target-x="347.5" target-y="182.2"></path><path d="M 367.50 188.60 L 362.20 267.80" fill="none" group-id="1,2,3" id="Stroke-5" node-id="15" stroke="#ffffff" stroke-linecap="round" stroke-width="0.867" target-height="79.19998" target-width="5.299988" target-x="362.2" target-y="188.6"></path><path d="M 360.20 240.40 L 358.20 245.40 L 356.60 250.50 L 355.30 255.80 L 354.90 259.90 L 355.10 262.00 L 355.70 263.90 L 357.00 265.70 L 358.70 267.10 L 360.70 268.10 L 362.90 268.70 L 365.20 268.80 L 367.60 268.70 L 372.10 267.30 L 376.20 264.70 L 379.00 262.20 L 381.30 259.40 L 383.20 256.30 L 386.10 249.60 L 392.40 226.30 L 394.00 222.30 L 398.50 213.60 L 399.10 210.60 L 398.30 209.10 L 395.80 208.00 L 394.10 207.90 L 391.30 208.20 L 388.10 209.00 L 384.80 210.40 L 381.50 212.30 L 378.30 214.70 L 375.30 217.60 L 370.90 222.90 L 366.90 228.40 L 363.30 234.30 L 360.20 240.40" fill="#ffc957" fill-rule="evenodd" group-id="1,2,3" id="Fill-7" node-id="16" stroke="none" target-height="60.899994" target-width="44.200012" target-x="354.9" target-y="207.9"></path><path d="M 363.30 268.80 L 365.60 261.10 L 370.10 249.20 L 373.40 242.10 L 377.20 234.90 L 381.70 227.60 L 385.10 222.90 L 388.80 218.50 L 392.80 214.30" fill="none" group-id="1,2,3" id="Stroke-9" node-id="17" stroke="#ffffff" stroke-linecap="round" stroke-width="0.867" target-height="54.499985" target-width="29.5" target-x="363.3" target-y="214.3"></path><path d="M 411.30 232.80 L 409.70 234.50 L 407.80 235.70 L 396.60 241.30 L 392.80 244.30 L 396.70 237.20 L 398.90 234.10 L 402.90 230.10 L 406.60 228.40 L 408.40 228.20 L 410.00 228.40 L 410.90 228.90 L 411.50 229.70 L 411.70 230.70 L 411.30 232.80" fill="#2a8ef2" fill-rule="evenodd" group-id="1,2,3" id="Fill-11" node-id="18" stroke="none" target-height="16.100006" target-width="18.900024" target-x="392.8" target-y="228.2"></path><path d="M 415.50 254.50 L 413.40 255.40 L 411.10 255.70 L 398.60 256.00 L 393.80 257.10 L 397.10 254.50 L 403.70 250.60 L 407.30 249.20 L 410.30 248.60 L 412.70 248.60 L 414.90 249.30 L 416.20 250.10 L 416.80 250.90 L 417.00 251.90 L 416.80 252.90 L 415.50 254.50" fill="#2a8ef2" fill-rule="evenodd" group-id="1,2,3" id="Fill-13" node-id="19" stroke="none" target-height="8.5" target-width="23.200012" target-x="393.8" target-y="248.6"></path><path d="M 407.10 265.60 L 405.60 265.10 L 404.30 264.20 L 397.80 258.70 L 394.90 257.10 L 399.20 257.50 L 403.10 258.30 L 405.60 259.30 L 407.40 260.30 L 408.60 261.50 L 409.60 263.80 L 409.10 265.00 L 408.50 265.40 L 407.10 265.60" fill="#2a8ef2" fill-rule="evenodd" group-id="1,2,3" id="Fill-15" node-id="20" stroke="none" target-height="8.5" target-width="14.700012" target-x="394.9" target-y="257.1"></path><path d="M 383.30 268.80 L 384.00 264.10 L 385.00 260.40 L 386.40 256.40 L 390.70 248.30 L 396.30 241.10 L 399.60 237.70 L 403.70 234.10 L 408.60 230.30" fill="none" group-id="1,2,3" id="Stroke-17" node-id="21" stroke="#ffffff" stroke-linecap="round" stroke-width="0.78" target-height="38.499985" target-width="25.300018" target-x="383.3" target-y="230.3"></path><path d="M 383.30 268.80 L 385.40 265.30 L 387.30 262.80 L 389.60 260.40 L 395.10 256.20 L 400.80 253.50 L 404.00 252.60 L 407.60 252.00 L 411.70 251.70" fill="none" group-id="1,2,3" id="Stroke-19" node-id="22" stroke="#ffffff" stroke-linecap="round" stroke-width="0.78" target-height="17.09999" target-width="28.400024" target-x="383.3" target-y="251.7"></path><path d="M 394.90 257.10 L 397.80 257.70 L 400.40 258.80 L 403.40 260.50 L 407.50 263.50" fill="none" group-id="1,2,3" id="Stroke-21" node-id="23" stroke="#ffffff" stroke-linecap="round" stroke-width="0.78" target-height="6.399994" target-width="12.600006" target-x="394.9" target-y="257.1"></path></g><g node-id="100"><g node-id="103"><path d="M 165.00 269.70 L 151.40 219.40 L 143.40 193.90 L 137.70 179.20 L 132.30 168.80 L 129.10 164.10 L 125.80 160.00 L 123.30 157.60 L 118.40 154.00 L 115.80 152.80 L 113.20 152.00 L 110.60 151.80 L 107.60 152.60 L 102.20 155.30 L 99.80 157.10 L 96.80 160.00 L 94.10 163.30 L 91.50 167.10 L 87.20 175.40 L 85.40 179.90 L 82.50 189.30 L 73.40 228.60 L 71.70 235.00 L 68.60 243.30 L 66.60 247.10 L 64.90 249.50 L 63.30 251.10 L 61.60 251.90 L 59.70 252.20 L 57.90 251.90 L 56.00 251.10 L 52.50 248.20 L 50.80 245.90 L 45.60 236.60 L 43.60 233.70 L 42.10 232.10 L 40.40 230.70 L 38.50 229.70 L 36.50 229.20 L 34.00 229.50 L 32.70 230.10 L 31.10 231.50 L 29.80 233.40 L 28.20 238.20 L 25.60 260.00 L 24.00 269.70 L 165.00 269.70 Z" fill="#e4edf9" fill-rule="evenodd" group-id="1,2,4,7" id="Fill-23" node-id="28" stroke="none" target-height="117.90001" target-width="141" target-x="24" target-y="151.8"></path></g></g><path d="M 112.90 239.00 L 105.60 230.50 L 104.30 228.20 L 103.30 225.60 L 102.80 222.60 L 102.80 219.60 L 103.70 210.30 L 103.50 207.30 L 103.00 205.30 L 101.20 201.80 L 99.40 200.10 L 97.30 198.90 L 94.90 198.00 L 85.30 195.60 L 81.70 193.50 L 80.00 191.30 L 77.90 185.20 L 76.90 183.10 L 75.30 180.80 L 71.40 177.10 L 67.80 175.30 L 65.90 174.90 L 64.00 175.10 L 62.10 175.80 L 60.70 176.70 L 58.90 179.20 L 58.10 181.50 L 57.90 184.00 L 58.10 186.50 L 58.70 188.90 L 59.70 191.20 L 66.10 198.90 L 66.90 200.60 L 67.40 202.50 L 67.30 204.60 L 66.70 206.70 L 63.20 215.00 L 62.90 217.10 L 63.20 219.10 L 64.10 221.00 L 65.50 222.50 L 70.70 226.60 L 72.10 228.20 L 73.10 230.00 L 73.60 232.00 L 73.80 234.10 L 73.50 237.40 L 72.60 240.50 L 68.90 249.40 L 67.90 252.40 L 67.60 255.30 L 67.90 257.80 L 68.60 260.10 L 69.80 262.20 L 71.30 264.00 L 75.40 267.00 L 80.10 268.90 L 82.90 269.40 L 93.50 270.00 L 99.40 269.90 L 101.80 269.80 L 104.40 268.60 L 107.20 267.00 L 112.10 262.90 L 115.90 257.90 L 117.40 253.70 L 117.70 249.20 L 117.40 247.00 L 116.70 244.80 L 115.00 241.80 L 112.90 239.00" fill="#ffc957" fill-rule="evenodd" group-id="1,2" id="Fill-25" node-id="29" stroke="none" target-height="95.100006" target-width="59.799995" target-x="57.9" target-y="174.9"></path><path d="M 67.90 184.00 L 74.70 196.10 L 77.80 202.20 L 84.60 217.80 L 88.00 227.10 L 91.10 236.70 L 93.70 247.20 L 96.10 261.50 L 96.80 269.00" fill="none" group-id="1,2" id="Stroke-27" node-id="30" stroke="#ffffff" stroke-linecap="round" stroke-width="1" target-height="85" target-width="28.900002" target-x="67.9" target-y="184"></path><path d="M 46.50 238.20 L 48.10 237.60 L 49.70 237.90 L 51.20 238.60 L 52.90 239.90 L 54.70 242.10 L 56.90 245.60 L 58.90 249.80 L 56.30 247.50 L 47.30 242.40 L 46.00 240.30 L 46.10 238.80 L 46.50 238.20" fill="#97bdff" fill-rule="evenodd" group-id="1,2" id="Fill-29" node-id="31" stroke="none" target-height="12.199997" target-width="12.900002" target-x="46" target-y="237.6"></path><path d="M 41.10 256.50 L 42.30 255.40 L 44.00 254.90 L 45.90 254.80 L 48.00 255.30 L 50.60 256.30 L 54.30 258.30 L 57.90 260.90 L 54.40 260.10 L 43.60 259.70 L 41.50 258.50 L 40.90 257.20 L 41.10 256.50" fill="#97bdff" fill-rule="evenodd" group-id="1,2" id="Fill-31" node-id="32" stroke="none" target-height="6.099991" target-width="17" target-x="40.9" target-y="254.8"></path><path d="M 48.00 266.10 L 48.00 265.00 L 48.80 263.70 L 50.20 262.70 L 52.30 261.80 L 57.90 260.90 L 55.90 262.00 L 50.60 266.60 L 49.60 266.90 L 48.60 266.80 L 48.00 266.10" fill="#97bdff" fill-rule="evenodd" group-id="1,2" id="Fill-33" node-id="33" stroke="none" target-height="6" target-width="9.900002" target-x="48" target-y="260.9"></path><path d="M 65.90 269.00 L 64.90 263.50 L 63.50 259.40 L 60.30 253.40 L 57.80 249.90 L 55.00 246.70 L 51.40 243.20 L 46.90 239.60" fill="none" group-id="1,2" id="Stroke-35" node-id="34" stroke="#001e48" stroke-linecap="round" stroke-width="0.78" target-height="29.399994" target-width="19" target-x="46.9" target-y="239.6"></path><path d="M 65.90 269.00 L 63.30 265.30 L 60.90 262.90 L 56.80 260.10 L 51.30 257.80 L 47.90 257.10 L 43.90 256.80" fill="none" group-id="1,2" id="Stroke-37" node-id="35" stroke="#001e48" stroke-linecap="round" stroke-width="0.78" target-height="12.200012" target-width="22" target-x="43.9" target-y="256.8"></path><path d="M 57.90 260.90 L 53.90 262.00 L 48.90 264.90" fill="none" group-id="1,2" id="Stroke-39" node-id="36" stroke="#001e48" stroke-linecap="round" stroke-width="0.78" target-height="4" target-width="9" target-x="48.9" target-y="260.9"></path><g node-id="101"><g node-id="104"><path d="M 106.70 86.40 L 333.30 86.40 L 335.00 86.60 L 336.40 87.20 L 337.60 88.20 L 338.50 89.40 L 339.10 90.80 L 339.30 92.40 L 339.30 258.50 L 339.10 260.20 L 338.50 261.60 L 336.40 263.70 L 335.00 264.30 L 333.30 264.50 L 106.70 264.50 L 105.10 264.30 L 103.70 263.70 L 102.50 262.80 L 101.50 261.60 L 100.90 260.20 L 100.70 258.50 L 100.70 92.40 L 100.90 90.80 L 101.50 89.40 L 102.50 88.20 L 103.70 87.20 L 105.10 86.60 L 106.70 86.40 Z" fill="#91b3fa" fill-rule="evenodd" group-id="1,2,5,8" id="矩形" node-id="39" stroke="none" target-height="178.1" target-width="238.59999" target-x="100.7" target-y="86.4"></path><g node-id="107"><g node-id="114"><path d="M 351.10 270.50 L 93.00 270.50 L 89.70 270.00 L 87.30 268.60 L 86.50 266.70 L 86.50 262.00 L 357.70 262.00 L 357.70 266.70 L 356.90 268.60 L 354.50 270.00 L 351.10 270.50" fill="#91b3fa" fill-rule="evenodd" group-id="1,2,5,8,11,18" id="Fill-5" node-id="44" stroke="none" target-height="8.5" target-width="271.2" target-x="86.5" target-y="262"></path></g></g><path d="M 108.10 246.40 L 333.00 246.40 L 333.00 94.90 L 108.10 94.90 Z" fill="#fdfdfd" fill-rule="evenodd" group-id="1,2,5,8" id="Fill-7" node-id="45" stroke="none" target-height="151.5" target-width="224.9" target-x="108.1" target-y="94.9"></path><path d="M 195.30 254.90 L 198.90 260.30 L 249.80 260.30 L 253.10 254.90 Z" fill="#527ee9" fill-rule="evenodd" group-id="1,2,5,8" id="Fill-9" node-id="46" stroke="none" target-height="5.399994" target-width="57.800003" target-x="195.3" target-y="254.9"></path><path d="M 100.70 256.00 L 338.30 256.00 L 338.30 254.90 L 100.70 254.90 Z" fill="#527ee9" fill-rule="evenodd" group-id="1,2,5,8" id="Fill-10" node-id="47" stroke="none" target-height="1.1000061" target-width="237.59999" target-x="100.7" target-y="254.9"></path></g><g node-id="105"><g node-id="108"><path d="M 302.20 266.70 L 298.30 266.70 L 299.80 261.30 L 303.60 261.30 Z" fill="#fff1d6" fill-rule="evenodd" group-id="1,2,5,9,12" id="Fill-89" node-id="49" stroke="none" target-height="5.4000244" target-width="5.3000183" target-x="298.3" target-y="261.3"></path></g><path d="M 298.60 264.50 L 300.80 265.20 L 302.80 264.50 L 304.60 268.80 L 287.80 268.80 L 294.10 266.70 Z" fill="#001e48" fill-rule="evenodd" group-id="1,2,5,9" id="Fill-88" node-id="50" stroke="none" target-height="4.299988" target-width="16.800018" target-x="287.8" target-y="264.5"></path><path d="M 340.80 266.70 L 344.60 266.70 L 343.20 261.30 L 339.30 261.30 Z" fill="#fff1d6" fill-rule="evenodd" group-id="1,2,5,9" id="Fill-89" node-id="51" stroke="none" target-height="5.4000244" target-width="5.3000183" target-x="339.3" target-y="261.3"></path><path d="M 344.30 264.50 L 342.10 265.20 L 340.10 264.50 L 338.30 268.80 L 355.10 268.80 L 348.80 266.70 Z" fill="#001e48" fill-rule="evenodd" group-id="1,2,5,9" id="Fill-90" node-id="52" stroke="none" target-height="4.299988" target-width="16.800018" target-x="338.3" target-y="264.5"></path><path d="M 323.60 164.30 L 325.20 159.50 L 331.70 159.00 L 332.80 159.80 L 332.90 161.20 L 332.00 162.30 L 323.60 164.30 Z" fill="#fff1d6" fill-rule="evenodd" group-id="1,2,5,9" id="Fill-106" node-id="53" stroke="none" target-height="5.300003" target-width="9.299988" target-x="323.6" target-y="159"></path><path d="M 321.10 159.80 L 324.10 164.30 L 329.90 163.10 L 323.40 153.60 L 321.10 155.50 L 320.50 156.90 L 320.50 158.40 L 321.10 159.80" fill="#fff1d6" fill-rule="evenodd" group-id="1,2,5,9" id="Fill-107" node-id="54" stroke="none" target-height="10.699997" target-width="9.399994" target-x="320.5" target-y="153.6"></path><path d="M 325.90 157.90 L 344.60 137.80 L 334.70 135.50 L 323.60 153.20 Z" fill="#e7f3fe" fill-rule="evenodd" group-id="1,2,5,9" id="Fill-108" node-id="55" stroke="none" target-height="22.399994" target-width="21" target-x="323.6" target-y="135.5"></path><g node-id="109"><path d="M 291.80 151.50 L 274.10 129.80 L 281.50 129.00 L 294.10 146.80 Z" fill="#e7f3fe" fill-rule="evenodd" group-id="1,2,5,9,13" id="Fill-108" node-id="56" stroke="none" target-height="22.5" target-width="20" target-x="274.1" target-y="129"></path></g><path d="M 337.60 137.30 L 338.60 138.60 L 340.00 139.50 L 342.10 139.70 L 343.20 139.30 L 344.60 138.30 L 345.40 136.90 L 345.60 135.30 L 345.20 133.70 L 344.20 132.30 L 342.90 131.50 L 340.80 131.30 L 339.70 131.60 L 338.30 132.60 L 337.50 134.00 L 337.20 135.60 L 337.60 137.30" fill="#e7f3fe" fill-rule="evenodd" group-id="1,2,5,9" id="Fill-109" node-id="57" stroke="none" target-height="8.399994" target-width="8.399994" target-x="337.2" target-y="131.3"></path><path d="M 338.90 138.70 L 344.60 132.50 L 323.70 107.60 L 322.60 107.00 L 320.00 106.80 L 317.60 108.00 L 316.80 109.40 L 316.30 111.40 L 316.50 115.90 L 317.10 117.90 L 318.00 119.10 L 338.90 138.70 Z" fill="#e7f3fe" fill-rule="evenodd" group-id="1,2,5,9" id="Fill-110" node-id="58" stroke="none" target-height="31.899994" target-width="28.300018" target-x="316.3" target-y="106.8"></path><path d="M 305.70 110.20 L 314.00 110.90 L 315.10 97.80 L 306.80 97.10 Z" fill="#f9edd4" fill-rule="evenodd" group-id="1,2,5,9" id="Fill-111" node-id="59" stroke="none" target-height="13.800003" target-width="9.399994" target-x="305.7" target-y="97.1"></path><path d="M 277.00 123.70 L 275.40 124.10 L 274.10 125.00 L 273.30 126.20 L 273.10 127.70 L 273.50 129.10 L 274.50 130.30 L 275.90 131.00 L 277.60 131.20 L 279.20 130.80 L 280.50 129.90 L 281.30 128.70 L 281.50 127.20 L 281.10 125.80 L 280.10 124.70 L 278.70 123.90 L 277.00 123.70" fill="#e7f3fe" fill-rule="evenodd" group-id="1,2,5,9" id="Fill-112" node-id="60" stroke="none" target-height="7.5" target-width="8.399994" target-x="273.1" target-y="123.7"></path><g node-id="110"><path d="M 275.00 124.40 L 280.40 129.50 L 301.60 118.90 L 302.90 117.30 L 303.30 116.00 L 303.50 111.70 L 303.10 109.60 L 302.40 108.20 L 301.30 107.30 L 300.20 106.60 L 297.60 106.50 L 295.20 107.70 L 275.00 124.40 Z" fill="#e7f3fe" fill-rule="evenodd" group-id="1,2,5,9,14" id="Fill-113" node-id="61" stroke="none" target-height="23" target-width="28.5" target-x="275" target-y="106.5"></path></g><path d="M 320.90 155.50 L 323.50 110.20 L 323.40 109.10 L 322.10 107.30 L 320.10 106.40 L 298.50 105.70 L 297.50 106.00 L 295.80 107.40 L 295.10 109.60 L 291.00 163.20 L 320.90 155.50 Z" fill="#e7f3fe" fill-rule="evenodd" group-id="1,2,5,9" id="Fill-114" node-id="62" stroke="none" target-height="57.5" target-width="32.5" target-x="291" target-y="105.7"></path><path d="M 301.10 155.70 L 305.70 170.70 L 303.70 263.50 L 295.50 263.50 L 291.00 163.50 L 291.60 155.70 Z" fill="#1a55b5" fill-rule="evenodd" group-id="1,2,5,9" id="Fill-115" node-id="63" stroke="none" target-height="107.8" target-width="14.700012" target-x="291" target-y="155.7"></path><path d="M 301.50 155.70 L 306.10 174.10 L 309.30 174.10 L 338.80 263.50 L 345.60 263.50 L 324.90 167.90 L 320.90 155.70 Z" fill="#527ee9" fill-rule="evenodd" group-id="1,2,5,9" id="Fill-116" node-id="64" stroke="none" target-height="107.8" target-width="44.100006" target-x="301.5" target-y="155.7"></path><path d="M 304.80 106.70 L 310.90 106.90 L 308.40 110.60 L 308.40 139.70 L 304.80 147.20 L 301.50 138.20 L 306.10 110.30 Z" fill="#1661f7" fill-rule="evenodd" group-id="1,2,5,9" id="Fill-118" node-id="65" stroke="none" target-height="40.5" target-width="9.399994" target-x="301.5" target-y="106.7"></path><path d="M 300.40 85.20 L 298.40 82.20 L 297.90 79.50 L 298.40 77.50 L 299.00 76.60 L 299.70 75.80 L 301.20 75.10 L 299.70 76.30 L 298.80 79.20 L 298.90 81.20 L 299.40 83.00 L 300.40 84.70 L 301.70 86.20 L 300.40 85.20 M 321.40 87.10 L 320.30 83.30 L 319.20 81.70 L 317.90 80.40 L 314.70 78.70 L 308.90 78.10 L 304.10 75.00 L 301.80 74.70 L 299.50 75.50 L 298.00 77.30 L 297.30 79.50 L 297.70 82.50 L 298.40 83.90 L 299.80 85.60 L 301.50 86.80 L 301.50 89.60 L 302.50 92.80 L 304.60 95.50 L 306.00 96.50 L 309.10 97.90 L 311.00 98.10 L 314.70 97.60 L 318.00 95.70 L 320.30 92.80 L 321.10 91.00 L 321.40 87.10" fill="#1a55b5" fill-rule="evenodd" group-id="1,2,5,9" id="Fill-119" node-id="66" stroke="none" target-height="23.400002" target-width="24.100006" target-x="297.3" target-y="74.7"></path><path d="M 308.70 83.20 L 306.60 83.50 L 305.20 84.10 L 303.90 85.00 L 302.60 86.80 L 301.60 92.60 L 301.50 94.80 L 302.00 96.90 L 302.90 98.80 L 304.30 100.40 L 306.00 101.60 L 308.10 102.30 L 310.30 102.40 L 312.40 101.90 L 314.20 100.90 L 315.80 99.50 L 316.90 97.70 L 318.30 91.70 L 318.10 89.30 L 317.50 87.70 L 316.50 86.30 L 314.70 84.80 L 313.30 84.10 L 308.70 83.20" fill="#fff1d6" fill-rule="evenodd" group-id="1,2,5,9" id="Fill-121" node-id="67" stroke="none" target-height="19.200005" target-width="16.799988" target-x="301.5" target-y="83.2"></path><path d="M 310.90 82.60 L 315.20 83.90 L 316.20 84.60 L 316.90 85.60 L 317.00 88.30 L 315.50 92.90 L 315.70 93.60 L 316.40 93.90 L 317.20 93.60 L 318.60 91.60 L 319.40 91.20 L 319.00 82.30 L 313.00 82.10 L 310.90 82.60" fill="#1a55b5" fill-rule="evenodd" group-id="1,2,5,9" id="Fill-123" node-id="68" stroke="none" target-height="11.800003" target-width="8.5" target-x="310.9" target-y="82.1"></path></g><path d="M 243.20 121.60 L 244.70 122.30 L 245.30 123.70 L 245.30 130.80 L 244.70 132.30 L 243.20 132.90 L 241.80 132.80 L 241.10 132.30 L 240.40 130.80 L 240.60 123.00 L 241.80 121.80 L 243.20 121.60 Z M 256.90 127.30 L 257.60 128.30 L 257.80 129.00 L 257.20 130.50 L 251.70 136.20 L 250.20 136.20 L 249.50 135.80 L 248.80 134.80 L 248.70 134.00 L 249.20 132.60 L 254.10 127.30 L 255.50 126.70 L 256.90 127.30 Z M 261.10 136.50 L 262.60 137.00 L 263.50 138.20 L 263.60 139.70 L 263.30 140.50 L 261.80 141.40 L 254.00 142.90 L 252.70 142.00 L 252.30 141.10 L 252.30 139.60 L 253.20 138.30 L 261.10 136.50 Z M 236.30 154.90 L 235.20 154.40 L 234.10 154.30 L 233.00 154.80 L 232.10 155.60 L 215.60 177.60 L 205.80 167.70 L 204.70 167.10 L 203.40 166.90 L 202.20 167.10 L 201.30 167.70 L 200.70 168.80 L 200.50 170.10 L 200.70 171.30 L 201.30 172.30 L 213.90 185.10 L 215.70 185.70 L 217.20 185.40 L 218.50 184.30 L 237.00 159.20 L 237.50 158.00 L 237.60 156.90 L 237.20 155.90 L 236.30 154.90 Z M 219.10 130.10 L 227.10 130.90 L 234.40 133.30 L 241.20 137.00 L 247.00 141.90 L 251.80 147.80 L 255.50 154.60 L 257.80 162.00 L 258.60 170.10 L 258.40 174.20 L 256.90 182.00 L 255.50 185.60 L 251.80 192.40 L 249.60 195.50 L 244.20 201.00 L 237.90 205.30 L 234.40 207.00 L 227.10 209.30 L 223.20 209.90 L 219.10 210.10 L 211.10 209.30 L 207.40 208.30 L 200.30 205.30 L 194.00 201.00 L 191.20 198.40 L 188.60 195.50 L 184.40 189.20 L 181.30 182.00 L 180.40 178.20 L 179.50 170.10 L 179.80 166.00 L 180.40 162.00 L 182.70 154.60 L 184.40 151.10 L 188.60 144.70 L 194.00 139.30 L 197.00 137.00 L 203.80 133.30 L 207.40 131.90 L 215.00 130.30 L 219.10 130.10 Z" fill="#07d1bd" fill-rule="evenodd" group-id="1,2,5,10,16" id="Fill-1" node-id="73" stroke="none" target-height="88.50001" target-width="84.100006" target-x="179.5" target-y="121.6"></path></g><path d="M 1.00 269.50 L 489.00 269.50" fill="none" group-id="1,2" id="直线-3" node-id="74" stroke="#a4aab9" stroke-linecap="square" stroke-width="1" target-height="0" target-width="488" target-x="1" target-y="269.5"></path></g></g></svg>